/* XPM */
static char * arrow_right_down_xpm[] = {
"32 32 3 1",
" 	c None",
".	c #000000",
"+	c #FFFFFF",
"                                ",
"                                ",
"                                ",
"                                ",
"                                ",
"                                ",
"                                ",
"                                ",
"                                ",
"                                ",
"                                ",
"                                ",
"                                ",
"                                ",
"                                ",
"                                ",
"                  .             ",
"                 .+.            ",
"                .+++.     .     ",
"                 .+++.   ..     ",
"                  .+++. .+. ....",
"                   .+++.++. .++.",
"                    .+++++. .++.",
"                     .++++. .++.",
"                    .+++++. .++.",
"                   .++++++. .++.",
"                  ......... .++.",
"                            .++.",
"                    .........++.",
"                    .++++++++++.",
"                    .++++++++++.",
"                    ............"};
